<?xml version="1.0" encoding="UTF-8" standalone="no"?>
<!-- Created with Inkscape (http://www.inkscape.org/) -->

<svg
   version="1.1"
   id="svg17312"
   width="1366"
   height="768"
   viewBox="0 0 1366 768"
   sodipodi:docname="BrakeCheckProcedure.svg"
   inkscape:version="1.1.2 (0a00cf5339, 2022-02-04)"
   xmlns:inkscape="http://www.inkscape.org/namespaces/inkscape"
   xmlns:sodipodi="http://sodipodi.sourceforge.net/DTD/sodipodi-0.dtd"
   xmlns="http://www.w3.org/2000/svg"
   xmlns:svg="http://www.w3.org/2000/svg">
  <defs
     id="defs17316" />
  <sodipodi:namedview
     id="namedview17314"
     pagecolor="#ffffff"
     bordercolor="#666666"
     borderopacity="1.0"
     inkscape:pageshadow="2"
     inkscape:pageopacity="0.0"
     inkscape:pagecheckerboard="0"
     showgrid="false"
     inkscape:zoom="0.72776573"
     inkscape:cx="502.22205"
     inkscape:cy="373.05961"
     inkscape:window-width="1366"
     inkscape:window-height="704"
     inkscape:window-x="0"
     inkscape:window-y="0"
     inkscape:window-maximized="1"
     inkscape:current-layer="g17318" />
  <g
     inkscape:groupmode="layer"
     inkscape:label="Image"
     id="g17318">
    <g
       id="g22178"
       transform="matrix(1.6852742,0,0,1.6852742,-351.74208,-71.460149)">
      <path
         d="m 774.2866,339.45536 c 0,-1.3052 -13.31981,-1.5191 -108.97744,-1.75 l -108.97743,-0.2631 -2.77257,-2.7745 c -2.75511,-2.757 -2.77256,-2.8591 -2.77256,-16.2232 0,-12.6616 0.13329,-13.582 2.27737,-15.7255 l 2.27738,-2.2768 110.72262,-0.5614 c 98.52326,-0.4995 111.60407,-0.7468 118.72263,-2.2442 15.71155,-3.3049 15.5,-3.3005 15.5,-0.3222 v 2.6278 h 35.80001 c 26.5111,0 36.1114,-0.3114 37,-1.2 0.8879,-0.8879 1.2,-10.3533 1.2,-36.38987 0,-35.7122 -0.261,-39.0192 -4.511,-57.1601 -0.4398,-1.8774 -0.1099,-2.25 1.992,-2.25 h 2.519 v -26.9648 c 0,-25.6359 -0.095,-27.0158 -1.9342,-28 -1.2356,-0.6612 -15.5957,-1.0352 -39.7521,-1.0352 -33.65233,0 -38.97373,0.2203 -48.31371,2 -5.77282,1.1 -10.83443,2 -11.24802,2 -0.41359,0 -0.75198,-0.9 -0.75198,-2 0,-1.9875 -0.66156,-1.9999 -106.25,-1.9847 -65.06272,0.01 -106.83147,0.3822 -107.75,0.9616 -1.91845,1.2103 -2.79549,24.6682 -1.0446,27.9398 l 1.11497,2.0833 h 108.7954 c 104.18362,0 109.25827,-0.084 119.71481,-1.9848 13.58493,-2.4693 13.21491,-2.4757 13.59987,0.2348 l 0.31955,2.25 17.54865,-0.3475 c 18.85546,-0.3735 23.62016,0.4916 25.87086,4.6971 0.625,1.1678 1.0805,7.8647 1.0805,15.8853 0,10.1334 0.5326,16.2757 1.9784,22.8158 2.4644,11.1484 2.465,11.4493 0.022,11.4493 -1.9208,0 -2,0.6667 -2,16.8257 0,23.3347 2.5995,21.4826 -31.32822,22.3214 -18.36699,0.4541 -28.11023,1.1146 -32.67183,2.2148 -8.2487,1.9896 -8,2.0004 -8,-0.3467 0,-1.9676 -1.07531,-1.987 -124.91961,-2.25 l -124.91961,-0.2652 -2.58039,-2.4243 c -2.17196,-2.0406 -2.58205,-3.3069 -2.59089,-8 -0.006,-3.0666 -1.12148,-10.9757 -2.47934,-17.5757 -3.4371,-16.7064 -3.77548,-15.5 4.34774,-15.5 h 6.85791 l -1.84073,8.75 c -2.41142,11.4628 -2.5826,28.7645 -0.29329,29.643 0.86998,0.3339 57.11998,0.607 125,0.607 119.0116,0 123.41821,-0.065 123.41821,-1.8333 0.35161,-5.11858 11.12834,-0.93635 13.27141,-0.5282 10.12983,1.9449 15.45788,2.349 31.04433,2.3547 11.07171,0 19.61181,-0.4192 20.75001,-1.0284 1.7883,-0.9571 1.9343,-2.2395 1.9343,-17 v -15.9648 h -2.5 c -1.375,0 -2.5001,-0.359 -2.5001,-0.7977 0,-0.4388 1.1251,-6.1104 2.5001,-12.6036 3.3011,-15.5892 3.5931,-33.9433 0.5657,-35.5635 -1.1286,-0.604 -9.4592,-1.0352 -20.00001,-1.0352 -17.39907,0 -18.06574,0.074 -18.06574,2 0,2.433 -1.37208,2.471 -10,0.2765 -5.78883,-1.4724 -18.94241,-1.7147 -120.22262,-2.2149 l -113.72257,-0.5616 -2.27739,-2.2778 c -2.17284,-2.1732 -2.27738,-2.9854 -2.27738,-17.6927 0,-14.6504 0.11045,-15.5179 2.22672,-17.4895 2.22524,-2.0732 2.29835,-2.0745 110.25,-2.0489 l 108.02328,0.026 v -2.5083 c 0,-1.3796 0.4662,-2.5084 1.036,-2.5084 0.56979,0 7.62613,1.1343 15.68074,2.5206 13.81376,2.3775 16.61931,2.5167 49.44267,2.4534 23.6586,-0.046 35.4603,0.2873 36.8672,1.0402 1.138,0.6091 2.4976,2.2343 3.0213,3.6117 0.5237,1.3774 0.9521,14.4 0.9521,28.9392 0,25.7682 0.05,26.4349 2,26.4349 2.4679,0 2.4687,0.4766 0.021,12.6433 -1.7475,8.6869 -1.9884,14.1625 -2.0614,46.8467 -0.074,33.20277 -0.2564,37.21577 -1.7712,39.01027 -3.6172,4.285 -5.6283,4.4997 -42.1523,4.4997 -25.84413,0 -34.97115,0.3045 -35.26179,1.1765 -0.30065,0.9019 -1.75907,0.9019 -6.25012,0 -4.28925,-0.8615 -36.87304,-1.1765 -121.69098,-1.1765 H 556.2866 v 12.893 c 0,10.8343 0.25258,12.99 1.58179,13.5 0.86998,0.3339 49.91998,0.607 109,0.607 H 774.2866 v -2.5 c 0,-1.375 0.3375,-2.4975 0.75,-2.4945 0.4125,0 6.58095,1.1279 13.70766,2.5 12.81284,2.4666 13.55049,2.4943 66.00005,2.4792 31.6624,-0.01 53.6469,-0.3973 54.5423,-0.9631 1.2946,-0.818 1.5379,-7.8007 1.777,-50.98467 l 0.277,-50.0369 h -2.527 c -3.2091,0 -3.2089,-0.6891 0,-16.5563 2.5067,-12.3801 2.5281,-12.9081 2.25,-55.4223 -0.2197,-33.5801 -0.5637,-43.20585 -1.5804,-44.22225 -1.0289,-1.0324 -12.0155,-1.2992 -53.4962,-1.2992 H 803.7866 l -0.31975,2.2516 c -0.24854,1.75 -0.80535,2.136 -2.5,1.7328 -1.19914,-0.2853 -7.10455,-1.411 -13.12314,-2.5016 -10.52947,-1.9079 -15.61079,-1.9822 -134.5,-1.9681 -97.57975,0.012 -124.08272,0.2806 -126.05711,1.279 l -2.5,1.2643 -0.26693,25.74595 c -0.21941,21.1624 -0.021,25.8403 1.11456,26.276 1.16816,0.4483 1.1762,1.4868 0.0521,6.7251 -0.73119,3.4073 -1.34524,8.3646 -1.36456,11.0164 -0.0212,2.9112 -0.62944,5.4158 -1.53513,6.3215 -0.825,0.825 -1.53163,2.7053 -1.57029,4.1785 -0.0386,1.4732 -0.39741,3.5099 -0.79723,4.526 -0.47021,1.1949 -1.85809,-3.7864 -3.92972,-14.1043 -1.76156,-8.7733 -3.2028,-16.4671 -3.2028,-17.0973 0,-0.6302 1.35,-1.1458 3,-1.1458 h 3 l 0.0136,-25.75 c 0.008,-14.1625 0.26458,-26.68445 0.57126,-27.82655 0.30668,-1.142 1.83247,-2.8295 3.39064,-3.75 2.60805,-1.5406 12.82719,-1.6746 128.67874,-1.6874 l 125.84571,-0.014 12.75,-2.3175 12.75,-2.3176 v 2.3314 2.3315 h 52.43496 c 30.9673,0 53.4655,0.3918 54.9521,0.957 5.5529,2.1112 5.6099,2.6686 5.6481,55.24335 0.028,38.0772 0.3378,49.6754 1.4649,54.7997 1.8656,8.4815 1.8656,11 0,11 -1.3129,0 -1.5,6.1146 -1.5,49.0321 0,53.43657 -0.1448,54.93177 -5.5167,56.97417 -1.6199,0.6159 -24.2252,0.9937 -59.4605,0.9937 -46.3771,0 -58.29049,0.2762 -64.68489,1.4998 -9.90801,1.896 -12.33792,1.8986 -12.33792,0.013 z m -47.17382,-35.2628 c -27.32061,-0.1479 -72.32061,-0.1479 -100,-1e-4 -27.6794,0.1478 -5.32618,0.2688 49.67382,0.2688 55,1e-4 77.64678,-0.1209 50.32618,-0.2687 z m 124.85933,0 c -9.798,-0.1639 -25.548,-0.1636 -35.00001,6e-4 -9.45203,0.1642 -1.4355,0.2983 17.81451,0.2979 19.25,-3e-4 26.9835,-0.1347 17.1855,-0.2985 z M 543.2866,255.88689 c -0.825,-0.518 -2.7375,-1.3804 -4.25,-1.9164 -1.59838,-0.5665 -2.75133,-1.7179 -2.75317,-2.7494 -0.003,-1.6012 2.6241,-11.9022 5.06104,-19.8458 0.51817,-1.689 0.94213,-3.7784 0.94213,-4.643 0,-1.8429 -2.66202,-3.1419 -3.53707,-1.726 -1.41175,2.2842 -2.20541,-0.4765 -1.81075,-6.2986 0.41748,-6.1588 0.51799,-6.3466 6.13612,-11.4655 3.56219,-3.2456 6.65254,-5.2271 8.2117,-5.2653 3.43285,-0.084 5.41045,-1.5186 4.68821,-3.4007 -0.79589,-2.0741 2.03196,-4.8161 4.57184,-4.4331 1.10591,0.1668 2.66597,1.295 3.46679,2.5072 1.33614,2.0225 1.23772,2.4224 -1.19517,4.8552 -2.34984,2.3499 -2.48655,2.8382 -1.20273,4.296 0.79666,0.9047 1.77775,3.2198 2.1802,5.1448 1.11982,5.3563 3.23538,8.8165 6.38661,10.4461 1.57404,0.814 3.1479,2.2253 3.49748,3.1363 0.52986,1.3807 0.17573,1.544 -2.12882,0.9816 -1.52043,-0.3711 -3.69466,-0.6617 -4.83164,-0.6457 -1.37676,0.019 -3.01173,-1.4652 -4.89501,-4.4446 -1.55528,-2.4605 -2.94133,-4.4737 -3.08012,-4.4737 -0.13878,0 -0.75107,2.864 -1.36063,6.3644 -1.1715,6.7272 -0.0433,11.7754 3.24061,14.5008 0.79924,0.6634 1.72743,2.668 2.06265,4.4549 0.97069,5.1742 3.25119,7.6799 6.98977,7.6799 5.15672,0 5.12628,1.2585 -0.0865,3.576 -4.22975,1.8805 -5.12358,1.975 -7.48268,0.7908 -1.47352,-0.7397 -2.99929,-2.3536 -3.3906,-3.5865 -1.20386,-3.7931 -7.9579,-12.7803 -9.60457,-12.7803 -0.45413,0 -0.82569,0.718 -0.82569,1.5956 0,0.8776 -0.90368,2.8648 -2.00817,4.4159 -3.12528,4.389 -3.52619,8.1949 -1.09501,10.3951 2.96341,2.6819 1.48478,4.6572 -1.89682,2.534 z m 3,-42.6349 c 0,-2.5477 -2.1233,-1.2548 -3.55103,2.1622 -2.18994,5.2413 -1.74268,6.3188 1.05103,2.5321 1.375,-1.8637 2.5,-3.9761 2.5,-4.6943 z m 40.4991,25.0505 c -1.04897,-1.0489 -1.42977,-2.4963 -1.05238,-4 0.50396,-2.0079 0.21899,-2.3562 -1.92767,-2.3562 -1.38548,0 -2.51905,-0.45 -2.51905,-1 0,-0.55 -0.675,-1 -1.5,-1 -0.825,0 -1.5,0.45 -1.5,1 0,0.55 -0.45,1 -1,1 -0.55,0 -1,-1.575 -1,-3.5 0,-1.925 0.45,-3.5 1,-3.5 0.55,0 1,0.45 1,1 0,0.55 0.675,1 1.5,1 1.17949,0 1.5,-1.3889 1.5,-6.5 v -6.5 h 22.5 22.5 v 4.7778 c 0,3.5402 0.51802,5.2213 2,6.4902 1.97046,1.6871 2,1.6166 2,-4.7778 v -6.4902 h 23 23 v 5 c 0,2.75 0.417,5 0.92668,5 0.50967,0 1.13247,0.7875 1.38399,1.75 0.25153,0.9625 0.50953,-0.1625 0.57333,-2.5 l 0.116,-4.25 h 20 20 v 2.5 c 0,1.375 0.417,2.5 0.92668,2.5 0.50967,0 1.13247,0.7875 1.38399,1.75 0.25153,0.9625 0.50953,-0.1625 0.57333,-2.5 l 0.116,-4.25 h 19.5 19.5 v 4 c 0,2.2 0.45,4 1,4 0.55,0 1,-0.675 1,-1.5 0,-0.825 0.3375,-1.5014 0.75,-1.5031 0.4125,0 0.75219,-2.2069 0.75487,-4.9004 0.003,-3.403 0.58465,-5.5379 1.90499,-6.9969 1.83093,-2.0232 2.78555,-2.0996 26.21945,-2.0996 h 24.31933 l 1.61836,3.1296 c 0.95815,1.8528 1.46778,4.7085 1.24925,7 -0.203,2.1287 -0.0197,3.8704 0.40732,3.8704 0.42704,0 0.77643,1.8 0.77643,4 0,2.2 -0.45,4 -1,4 -0.55,0 -1,-0.5051 -1,-1.1224 0,-0.7961 -0.41885,-0.7749 -1.44056,0.073 -0.79231,0.6575 -1.20766,1.8025 -0.923,2.5443 0.89173,2.3238 -1.53134,5.505 -4.19306,5.505 -3.19015,0 -5.40631,-4.1348 -3.46796,-6.4704 1.08548,-1.3079 0.88218,-1.5296 -1.40267,-1.5296 -2.18437,0 -2.50439,0.2997 -1.7532,1.642 1.41451,2.5276 0.21394,5.3115 -2.59463,6.0164 -3.10933,0.7804 -5.59257,-2.0468 -4.75046,-5.4084 0.54176,-2.1626 0.30793,-2.25 -6.0228,-2.25 -6.0891,0 -6.53941,0.1482 -5.96365,1.9622 0.82857,2.6106 -1.10177,6.0378 -3.40075,6.0378 -2.61465,0 -4.40474,-2.5589 -3.84361,-5.4942 0.37731,-1.9738 0.0695,-2.5058 -1.44971,-2.5058 -1.46126,0 -1.77777,0.4756 -1.30593,1.9622 0.92904,2.9272 -1.15987,6.0378 -4.05458,6.0378 -2.63153,0 -3.6701,-1.5661 -3.83408,-5.7814 -0.0935,-2.4048 -2.59935,-4.6238 -2.59935,-2.3019 0,0.5958 -0.675,1.0833 -1.5,1.0833 -0.825,0 -1.5,-0.4077 -1.5,-0.9059 0,-0.4983 -1.10483,-0.3858 -2.45518,0.25 -1.80416,0.8494 -2.3153,1.7144 -1.92767,3.2621 0.56618,2.2607 -1.82537,5.3938 -4.11715,5.3938 -2.43621,0 -4.68417,-3.1301 -4.05328,-5.6438 0.58959,-2.3491 0.56304,-2.3562 -8.75448,-2.3562 h -9.34585 l 0.42725,2.9111 c 0.72731,4.9555 -5.38251,6.5568 -7.79783,2.0437 -0.53275,-0.9955 -0.69711,-2.5175 -0.36524,-3.3824 0.38601,-1.0059 0.0545,-1.5724 -0.92025,-1.5724 -0.83801,0 -1.75063,-0.5625 -2.02804,-1.25 -0.40351,-1 -0.52017,-1 -0.58333,0 -0.0446,0.7065 -1.39153,1.25 -3.098,1.25 -2.67186,0 -2.95105,0.271 -2.42767,2.3562 0.63089,2.5137 -1.61707,5.6438 -4.05328,5.6438 -2.43621,0 -4.68417,-3.1301 -4.05328,-5.6438 0.58696,-2.3386 0.52684,-2.3562 -8.03608,-2.3562 -8.45705,0 -8.61626,0.045 -8.06066,2.2583 0.69402,2.7652 -0.17828,4.2627 -2.99461,5.1409 -2.84462,0.887 -5.67764,-1.933 -5.08045,-5.057 0.32422,-1.696 -0.0106,-2.3422 -1.21359,-2.3422 -0.91373,0 -2.20133,-0.54 -2.86133,-1.2 -0.93333,-0.9333 -1.2,-0.9081 -1.2,0.1135 0,0.9878 -1.10275,1.1482 -4.44575,0.6469 l -4.44576,-0.6667 0.56089,3.4564 c 0.45394,2.7973 0.1714,3.6647 -1.4818,4.5495 -3.78156,2.0238 -7.65734,-1.3872 -6.51961,-5.7379 0.54912,-2.0999 0.30222,-2.1617 -8.63079,-2.1617 h -9.19609 l 0.63174,2.8763 c 0.66637,3.0339 -1.33815,6.1237 -3.97283,6.1237 -2.65335,0 -4.63938,-3.0889 -3.96376,-6.165 0.6027,-2.7441 0.48615,-2.8787 -1.96071,-2.2646 -1.53184,0.3845 -3.21292,0.1455 -4.08852,-0.5812 -1.13052,-0.9382 -1.48701,-0.9477 -1.48701,-0.04 0,0.8632 -1.51266,1.0054 -5.45491,0.5129 l -5.45492,-0.6816 0.57005,3.5128 c 0.46876,2.8887 0.19423,3.7139 -1.54509,4.6448 -1.51945,0.8132 -2.67838,0.8305 -4.11513,0.062 -2.06445,-1.1049 -2.35014,-1.9105 -2.03913,-5.75 0.17681,-2.1827 -0.0915,-2.25 -8.96876,-2.25 h -9.15102 l 0.63174,2.8763 c 1.08323,4.9319 -3.54718,7.9065 -6.97373,4.4799 z m 4.5009,-2.9395 c 0,-1.766 -2.15276,-1.4584 -2.77083,0.3958 -0.21771,0.6531 0.31666,1.1875 1.1875,1.1875 0.87083,0 1.58333,-0.7125 1.58333,-1.5833 z m 25,0.083 c 0,-0.825 -0.42344,-1.5 -0.94098,-1.5 -1.26098,0 -2.1641,1.5616 -1.36517,2.3605 1.12619,1.1262 2.30615,0.6859 2.30615,-0.8605 z m 26,-0.083 c 0,-1.766 -2.15276,-1.4584 -2.77083,0.3958 -0.21771,0.6531 0.31666,1.1875 1.1875,1.1875 0.87083,0 1.58333,-0.7125 1.58333,-1.5833 z m 25,0.083 c 0,-0.825 -0.42344,-1.5 -0.94098,-1.5 -1.26098,0 -2.1641,1.5616 -1.36517,2.3605 1.12619,1.1262 2.30615,0.6859 2.30615,-0.8605 z m 21.15,0 c 0,-0.5225 -0.48375,-1.1113 -1.075,-1.3084 -0.59125,-0.197 -1.075,0.3917 -1.075,1.3084 0,0.9166 0.48375,1.5054 1.075,1.3083 0.59125,-0.1971 1.075,-0.7858 1.075,-1.3083 z m 24.85,0 c 0,-0.825 -0.42344,-1.5 -0.94098,-1.5 -1.26098,0 -2.1641,1.5616 -1.36517,2.3605 1.12619,1.1262 2.30615,0.6859 2.30615,-0.8605 z m 17,0 c 0,-0.825 -0.42344,-1.5 -0.94098,-1.5 -1.26098,0 -2.1641,1.5616 -1.36517,2.3605 1.12619,1.1262 2.30615,0.6859 2.30615,-0.8605 z m 26,-0.083 c 0,-1.766 -2.15276,-1.4584 -2.77083,0.3958 -0.21771,0.6531 0.31666,1.1875 1.1875,1.1875 0.87083,0 1.58333,-0.7125 1.58333,-1.5833 z m 47.21667,-1.6 c -1.52752,-1.5275 -2.65464,-0.4004 -1.80743,1.8074 0.50024,1.3036 0.93392,1.4327 1.82354,0.5431 0.88963,-0.8896 0.88579,-1.4486 -0.0161,-2.3505 z m 10.78333,0.6243 c 0,-0.7926 -0.675,-1.441 -1.5,-1.441 -1.50623,0 -2.05568,2.111 -0.86052,3.3062 0.93324,0.9332 2.36052,-0.1946 2.36052,-1.8652 z m -40,-0.024 c 0,-0.8709 -0.53437,-1.4052 -1.1875,-1.1875 -1.85422,0.618 -2.16176,2.7708 -0.39583,2.7708 0.87083,0 1.58333,-0.7125 1.58333,-1.5833 z m 10,0 c 0,-1.7659 -2.15276,-1.4584 -2.77083,0.3958 -0.21771,0.6531 0.31666,1.1875 1.1875,1.1875 0.87083,0 1.58333,-0.7125 1.58333,-1.5833 z m -160,-9.9167 v -4.5 h -20 -20 v 4.5 4.5 h 20 20 z m 49,0 v -4.5 h -20 -20 v 4.5 4.5 h 20 20 z m 43,1 v -3.5 h -17 -17 v 3.5 3.5 h 17 17 z m 42,0 v -3.5 h -16.5 -16.5 v 3.5 3.5 h 16.5 16.5 z m 56.5,-6 v -6 l -21.75,-0.2695 -21.75,-0.2695 v 6.539 6.539 l 21.75,-0.2695 21.75,-0.2695 z m -46.53041,-0.25 c -0.0225,-2.7693 -0.27143,-3.338 -0.95202,-2.1745 -0.82408,1.4087 -0.36746,5.9245 0.59906,5.9245 0.21085,0 0.36969,-1.6875 0.35296,-3.75 z"
         style="fill:#000000"
         id="path17645"
         sodipodi:nodetypes="sscssscssscssssscssssssccscscscsssssssssscscsscssscccsscsssssssscsssccssscssssssssssscssscscccsscscscscssscscssssssssssccssscccccsscssssssssssssssssscssssssssssssssscsssssssssssssssssssssssssssssscccssscccsssscccsssscccsssccsscsssssssssssssssssssssssssssssscsssssssssssssssssscsssscssssssscsscsscsssssssssssssssssssssssssssssssssssssssssssssssssssscccccccccccccccccccccccccccccccccccccccccccccssss" />
      <rect
         style="fill:#000000;stroke:#000000;stroke-width:3.80373;stroke-opacity:1"
         id="rect18259"
         width="4.9628768"
         height="4.5356159"
         x="557.8988"
         y="189.45193" />
      <rect
         style="fill:#000000;stroke:#000000;stroke-width:2.97607;stroke-opacity:1"
         id="rect18259-3"
         width="10.086271"
         height="1.36617"
         x="557.82819"
         y="193.91695" />
    </g>
    <text
       xml:space="preserve"
       style="font-style:normal;font-weight:normal;font-size:40px;line-height:1.25;font-family:sans-serif;letter-spacing:0px;word-spacing:0px;fill:#000000;fill-opacity:1;stroke:none"
       x="710.75159"
       y="101.08793"
       id="text20429"><tspan
         sodipodi:role="line"
         id="tspan20427"
         x="710.75159"
         y="101.08793">(6)Way back</tspan></text>
    <text
       xml:space="preserve"
       style="font-style:normal;font-weight:normal;font-size:40px;line-height:1.25;font-family:sans-serif;letter-spacing:0px;word-spacing:0px;fill:#000000;fill-opacity:1;stroke:none"
       x="709.1084"
       y="215.17021"
       id="text20429-1"><tspan
         sodipodi:role="line"
         id="tspan20427-9"
         x="709.1084"
         y="215.17021">(2)Way back</tspan></text>
    <text
       xml:space="preserve"
       style="font-style:normal;font-weight:normal;font-size:40px;line-height:1.25;font-family:sans-serif;letter-spacing:0px;word-spacing:0px;fill:#000000;fill-opacity:1;stroke:none"
       x="700.67609"
       y="421.61328"
       id="text20429-1-5"><tspan
         sodipodi:role="line"
         id="tspan20427-9-0"
         x="700.67609"
         y="421.61328">(4)Way back</tspan></text>
    <text
       xml:space="preserve"
       style="font-style:normal;font-weight:normal;font-size:40px;line-height:1.25;font-family:sans-serif;letter-spacing:0px;word-spacing:0px;fill:#000000;fill-opacity:1;stroke:none"
       x="700.47754"
       y="479.49591"
       id="text20429-1-5-3"><tspan
         sodipodi:role="line"
         id="tspan20427-9-0-6"
         x="700.47754"
         y="479.49591">(5)Release brakes</tspan></text>
    <text
       xml:space="preserve"
       style="font-style:normal;font-weight:normal;font-size:40px;line-height:1.25;font-family:sans-serif;letter-spacing:0px;word-spacing:0px;fill:#000000;fill-opacity:1;stroke:none"
       x="701.89459"
       y="367.36978"
       id="text20429-1-8"><tspan
         sodipodi:role="line"
         id="tspan20427-9-4"
         x="701.89459"
         y="367.36978">(1)Preparation</tspan></text>
    <text
       xml:space="preserve"
       style="font-style:normal;font-weight:normal;font-size:40px;line-height:1.25;font-family:sans-serif;letter-spacing:0px;word-spacing:0px;fill:#000000;fill-opacity:1;stroke:none"
       x="195.93222"
       y="297.68411"
       id="text20429-1-8-1"><tspan
         sodipodi:role="line"
         id="tspan20427-9-4-0"
         x="195.93222"
         y="297.68411">(0)Pre inspection</tspan></text>
    <text
       xml:space="preserve"
       style="font-style:normal;font-weight:normal;font-size:40px;line-height:1.25;font-family:sans-serif;letter-spacing:0px;word-spacing:0px;fill:#000000;fill-opacity:1;stroke:none"
       x="707.69672"
       y="273.68085"
       id="text20429-1-4"><tspan
         sodipodi:role="line"
         id="tspan20427-9-7"
         x="707.69672"
         y="273.68085">Length ~700m</tspan></text>
    <text
       xml:space="preserve"
       style="font-style:normal;font-weight:normal;font-size:40px;line-height:1.25;font-family:sans-serif;letter-spacing:0px;word-spacing:0px;fill:#000000;fill-opacity:1;stroke:none"
       x="710.06232"
       y="156.96587"
       id="text25128"><tspan
         sodipodi:role="line"
         id="tspan25126"
         x="710.06232"
         y="156.96587">(3)Apply brakes</tspan></text>
  </g>
</svg>
